<svg width="18" height="18" viewBox="0 0 18 18" fill="none" xmlns="http://www.w3.org/2000/svg">
<path d="M7.93962 13.0605L1.93962 7.0605C1.66639 6.7776 1.51519 6.39869 1.51861 6.0054C1.52203 5.6121 1.67978 5.23588 1.95789 4.95777C2.23601 4.67966 2.61223 4.52191 3.00552 4.51849C3.39882 4.51507 3.77772 4.66626 4.06062 4.9395L9.00012 9.879L13.9396 4.9395C14.2225 4.66626 14.6014 4.51507 14.9947 4.51849C15.388 4.52191 15.7642 4.67966 16.0424 4.95777C16.3205 5.23588 16.4782 5.6121 16.4816 6.0054C16.4851 6.39869 16.3339 6.7776 16.0606 7.0605L10.0606 13.0605C9.77933 13.3417 9.39787 13.4997 9.00012 13.4997C8.60238 13.4997 8.22091 13.3417 7.93962 13.0605Z" fill="black"/>
</svg>
