<svg width="18" height="18" viewBox="0 0 18 18" fill="none" xmlns="http://www.w3.org/2000/svg">
<path d="M7.93962 4.9395L1.93962 10.9395C1.66639 11.2224 1.51519 11.6013 1.51861 11.9946C1.52203 12.3879 1.67978 12.7641 1.95789 13.0422C2.23601 13.3203 2.61223 13.4781 3.00552 13.4815C3.39882 13.4849 3.77772 13.3337 4.06062 13.0605L9.00012 8.121L13.9396 13.0605C14.2225 13.3337 14.6014 13.4849 14.9947 13.4815C15.388 13.4781 15.7642 13.3203 16.0424 13.0422C16.3205 12.7641 16.4782 12.3879 16.4816 11.9946C16.4851 11.6013 16.3339 11.2224 16.0606 10.9395L10.0606 4.9395C9.77933 4.65829 9.39787 4.50032 9.00012 4.50032C8.60238 4.50032 8.22091 4.65829 7.93962 4.9395Z" fill="black"/>
</svg>
