<svg width="58" height="59" viewBox="0 0 58 59" fill="none" xmlns="http://www.w3.org/2000/svg">
<path fill-rule="evenodd" clip-rule="evenodd" d="M4.90882 55.0668H53.0372C54.0334 55.0668 54.842 54.2583 54.842 53.262C54.842 52.2658 54.0334 51.4572 53.0372 51.4572H4.90882C3.91256 51.4572 3.104 52.2658 3.104 53.262C3.104 54.2583 3.91256 55.0668 4.90882 55.0668Z" fill="#FC782E"/>
<path fill-rule="evenodd" clip-rule="evenodd" d="M18.7455 40.0268C18.7455 39.2278 18.4279 38.465 17.8648 37.8995C17.2993 37.3364 16.5341 37.0187 15.7375 37.0187C13.887 37.0187 10.3688 37.0187 8.51828 37.0187C7.72175 37.0187 6.95651 37.3364 6.391 37.8995C5.8279 38.465 5.51025 39.2278 5.51025 40.0268V53.2621C5.51025 54.2583 6.31881 55.0669 7.31507 55.0669H16.9407C17.937 55.0669 18.7455 54.2583 18.7455 53.2621V40.0268ZM9.11988 40.6284H15.1359V51.4572H9.11988V40.6284Z" fill="#FC782E"/>
<path fill-rule="evenodd" clip-rule="evenodd" d="M35.5908 53.2621V32.8075C35.5908 32.0086 35.2731 31.2458 34.71 30.6802C34.1445 30.1171 33.3793 29.7995 32.5827 29.7995C30.7322 29.7995 27.214 29.7995 25.3635 29.7995C24.567 29.7995 23.8017 30.1171 23.2362 30.6802C22.6731 31.2458 22.3555 32.0086 22.3555 32.8075V53.2621C22.3555 54.2583 23.164 55.0669 24.1603 55.0669H33.7859C34.7822 55.0669 35.5908 54.2583 35.5908 53.2621ZM25.9651 33.4091H31.9811V51.4573H25.9651V33.4091Z" fill="#FC782E"/>
<path fill-rule="evenodd" clip-rule="evenodd" d="M52.4355 23.1818C52.4355 22.3829 52.1178 21.6201 51.5547 21.0546C50.9892 20.4915 50.224 20.1738 49.4275 20.1738C47.5769 20.1738 44.0588 20.1738 42.2082 20.1738C41.4117 20.1738 40.6465 20.4915 40.0809 21.0546C39.5178 21.6201 39.2002 22.3829 39.2002 23.1818V53.2621C39.2002 54.2583 40.0088 55.0669 41.005 55.0669H50.6307C51.6269 55.0669 52.4355 54.2583 52.4355 53.2621V23.1818ZM42.8098 23.7835H48.8259V51.4573H42.8098V23.7835Z" fill="#FC782E"/>
<path fill-rule="evenodd" clip-rule="evenodd" d="M43.8472 6.06979C41.0269 10.7238 32.987 15.835 22.8488 19.1848C18.4162 20.6527 14.1015 21.596 10.2127 22.0267C9.22127 22.1374 8.50657 23.0302 8.61726 24.0193C8.72796 25.0107 9.62074 25.7254 10.6098 25.6147C14.7247 25.1575 19.2921 24.1636 23.9822 22.6139C35.1384 18.9249 43.8304 13.0604 46.9322 7.93957C47.4496 7.0877 47.1777 5.97834 46.3258 5.46097C45.4739 4.94599 44.3622 5.21792 43.8472 6.06979Z" fill="#FC782E"/>
<path fill-rule="evenodd" clip-rule="evenodd" d="M40.2398 7.64601L45.2114 7.11901L45.7408 12.0931C45.8443 13.0821 46.7347 13.8016 47.7261 13.6957C48.7152 13.5923 49.4347 12.7019 49.3288 11.7105L48.6117 4.9436C48.5058 3.95216 47.6178 3.23264 46.6264 3.33852L39.8572 4.05804C38.8681 4.16152 38.1486 5.05189 38.2545 6.04334C38.358 7.03237 39.2483 7.75189 40.2398 7.64601Z" fill="#FC782E"/>
</svg>
