<svg width="19" height="19" viewBox="0 0 19 19" fill="none" xmlns="http://www.w3.org/2000/svg">
<g clip-path="url(#clip0_1_17)">
<path d="M1.43983 9.72264C1.44354 9.72636 1.44725 9.73007 1.45096 9.73378L3.49198 11.6635C3.06893 12.3351 3.14686 13.2369 3.73319 13.8232C4.06718 14.1572 4.50136 14.3242 4.93553 14.3316C4.95038 14.7769 5.1285 15.2185 5.46991 15.5599C5.8076 15.8976 6.25663 16.0869 6.73534 16.0943C6.74276 16.5545 6.92089 17.0072 7.26971 17.3598C7.94882 18.0685 9.17343 18.0685 9.85624 17.3598L10.9658 16.2502L11.2144 16.4988C11.9344 17.2187 13.1107 17.2187 13.8307 16.4988L13.8455 16.484C14.1943 16.1351 14.3724 15.6824 14.3873 15.2223C14.866 15.226 15.341 15.0441 15.7047 14.6805L15.7195 14.6656C16.0646 14.3205 16.2576 13.8641 16.2613 13.3742C16.7289 13.3705 17.1928 13.1887 17.549 12.8324L17.5639 12.8176C18.2838 12.0976 18.2838 10.9213 17.5639 10.2014L17.3746 10.0121L17.4711 9.91561C22.0986 4.88729 15.2185 -1.98536 10.1939 2.63846L9.24393 3.58846L8.39413 2.76093C6.47186 0.849793 3.35468 0.849793 1.43983 2.76464C-0.478723 4.68319 -0.478723 7.80409 1.43983 9.72264ZM16.7586 12.0457C16.4691 12.3351 16.0016 12.3351 15.7158 12.0457L14.6953 11.0252C14.4096 10.7506 14.4096 10.257 14.6953 9.98241L14.7101 9.96757C14.9848 9.68182 15.4783 9.68182 15.7529 9.96757L16.7734 10.9881C17.0629 11.2775 17.0629 11.7451 16.7734 12.0308L16.7586 12.0457ZM13.8678 13.8937L12.1978 12.2238C11.9121 11.9492 11.9121 11.4557 12.1978 11.181L12.2127 11.1662C12.5021 10.8767 12.9697 10.8767 13.2555 11.1662L13.9012 11.8119L14.9217 12.8324C15.2074 13.107 15.2074 13.6006 14.9217 13.8752L14.9068 13.89C14.6248 14.1795 14.1572 14.1795 13.8678 13.8937ZM11.9937 15.7121L11.3332 15.0516C11.0474 14.7769 11.0474 14.2834 11.3332 14.0088L11.348 13.9939C11.6375 13.7045 12.1051 13.7045 12.3908 13.9939L13.0514 14.6545C13.3408 14.9439 13.3408 15.4115 13.0514 15.6973L13.0365 15.7121C12.7508 15.9978 12.2832 15.9978 11.9937 15.7121ZM4.51991 12.1496L8.33846 8.33104C8.35702 8.31249 8.39042 8.31249 8.40897 8.33104L9.02499 8.94706C9.76718 9.72264 11.1068 9.72264 11.849 8.94706C12.632 8.19745 12.6209 6.83925 11.8267 6.10077L10.0418 4.36776L10.9807 3.42889C12.5541 1.85546 15.1109 1.85546 16.6844 3.42889C18.2578 5.00233 18.2578 7.55917 16.6844 9.13261L16.5879 9.22909L16.5396 9.18085C15.8494 8.46464 14.6099 8.46464 13.9234 9.18085L13.9086 9.19569C13.6859 9.41835 13.5301 9.68553 13.4447 9.97499C12.773 9.70038 11.9752 9.83397 11.4334 10.3758L11.4185 10.3906C10.7803 11.0029 10.6986 12.0717 11.2219 12.7767C10.9844 12.8658 10.758 13.0068 10.565 13.1998L10.5502 13.2146C9.97499 13.7713 9.84139 14.7101 10.231 15.4078L9.06952 16.5693C8.80233 16.8476 8.32362 16.8476 8.05643 16.5693C7.7744 16.2873 7.77811 15.8308 8.06014 15.5525L9.09178 14.5209C9.31073 14.3019 9.31073 13.9531 9.09178 13.7342C8.87284 13.5152 8.52401 13.5152 8.30507 13.7342L7.26971 14.7695C7.00253 15.0478 6.52382 15.0478 6.25663 14.7695C5.97831 14.4912 5.97831 14.0385 6.25663 13.7564L7.2994 12.7137C7.51835 12.4947 7.51835 12.1459 7.2994 11.9269C7.08046 11.708 6.73163 11.708 6.51268 11.9269C6.51268 11.9269 5.41425 13.0254 5.41053 13.0291C5.16561 13.274 4.76854 13.274 4.52362 13.0291C4.27499 12.7916 4.27499 12.3945 4.51991 12.1496ZM2.22655 3.55507C3.71093 2.07069 6.13046 2.07069 7.61483 3.56249L11.0512 6.90233C11.2219 7.06932 11.3183 7.29198 11.3221 7.52948C11.3295 8.31991 10.3721 8.71698 9.81171 8.16034L9.19569 7.54432C8.76151 7.09159 7.98593 7.09159 7.55175 7.54432L4.24901 10.8471L2.22284 8.9285C0.742175 7.44784 0.742175 5.03573 2.22655 3.55507Z" fill="white"/>
</g>
<defs>
<clipPath id="clip0_1_17">
<rect width="19" height="19" fill="white"/>
</clipPath>
</defs>
</svg>
