<svg width="50" height="50" viewBox="0 0 50 50" fill="none" xmlns="http://www.w3.org/2000/svg">
<path d="M46.7655 22.4062L39.7342 4.125C39.7342 4.125 39.7342 4.04687 39.7342 4L39.6405 3.84375C39.5657 3.73787 39.4821 3.63855 39.3905 3.54687L39.2655 3.4375C39.1234 3.32994 38.9652 3.24556 38.7967 3.1875H38.6717L38.2811 3.125H38.0936L11.5311 6.25H11.4373C11.3006 6.26772 11.1683 6.31007 11.0467 6.375L10.9373 6.48438C10.7847 6.58311 10.6477 6.70426 10.5311 6.84375C10.4376 6.96129 10.3637 7.09321 10.3123 7.23438L3.28109 25.5156C3.20383 25.7809 3.20383 26.0628 3.28109 26.3281C3.26568 26.4579 3.26568 26.589 3.28109 26.7188C3.42102 28.9106 4.35489 30.9764 5.90793 32.5294C7.46097 34.0824 9.52672 35.0163 11.7186 35.1562C13.9356 35.0536 16.0372 34.1383 17.6223 32.5849C19.2073 31.0315 20.165 28.9488 20.3123 26.7344C20.3277 26.6046 20.3277 26.4735 20.3123 26.3438C20.3896 26.0784 20.3896 25.7966 20.3123 25.5312L14.0623 9.125L23.4373 8V43.75H18.7498C18.3354 43.75 17.938 43.9146 17.645 44.2076C17.352 44.5007 17.1873 44.8981 17.1873 45.3125C17.1873 45.7269 17.352 46.1243 17.645 46.4174C17.938 46.7104 18.3354 46.875 18.7498 46.875H31.2498C31.6642 46.875 32.0617 46.7104 32.3547 46.4174C32.6477 46.1243 32.8123 45.7269 32.8123 45.3125C32.8123 44.8981 32.6477 44.5007 32.3547 44.2076C32.0617 43.9146 31.6642 43.75 31.2498 43.75H26.5623V7.64062L35.9373 6.54688L29.8436 22.4062C29.7663 22.6716 29.7663 22.9534 29.8436 23.2188C29.8282 23.3485 29.8282 23.4796 29.8436 23.6094C29.9872 25.7985 30.9227 27.8605 32.4753 29.4103C34.028 30.9601 36.0917 31.8917 38.2811 32.0312C40.4981 31.9286 42.5997 31.0133 44.1848 29.4599C45.7698 27.9065 46.7275 25.8238 46.8748 23.6094C46.8902 23.4796 46.8902 23.3485 46.8748 23.2188C46.9171 22.943 46.8792 22.661 46.7655 22.4062ZM43.2186 21.875H33.3436L38.2811 9.03125L43.2186 21.875ZM11.7186 12.1562L16.6561 25H6.78109L11.7186 12.1562ZM11.7186 32.0312C10.574 31.9786 9.47311 31.5758 8.5649 30.8771C7.65668 30.1785 6.98492 29.2178 6.64046 28.125H16.7967C16.4523 29.2178 15.7805 30.1785 14.8723 30.8771C13.9641 31.5758 12.8632 31.9786 11.7186 32.0312ZM38.2811 28.9062C37.1365 28.8536 36.0356 28.4508 35.1274 27.7521C34.2192 27.0535 33.5474 26.0928 33.203 25H43.3592C43.0148 26.0928 42.343 27.0535 41.4348 27.7521C40.5266 28.4508 39.4257 28.8536 38.2811 28.9062Z" fill="white"/>
</svg>
