<svg width="42" height="42" viewBox="0 0 42 42" fill="none" xmlns="http://www.w3.org/2000/svg">
<g clip-path="url(#clip0_902_175)">
<path d="M21 0C9.22425 0 0 9.22433 0 21C0 32.7757 9.22425 42 21 42C32.7757 42 42 32.7757 42 21C42 9.22433 32.7757 0 21 0ZM21 38.7188C11.0643 38.7188 3.28125 30.9358 3.28125 21C3.28125 11.0642 11.0643 3.28125 21 3.28125C30.9357 3.28125 38.7188 11.0642 38.7188 21C38.7188 30.9358 30.9357 38.7188 21 38.7188Z" fill="white"/>
<path d="M25.9219 16.0781H29.2031C29.2031 12.4596 26.2592 9.51562 22.6406 9.51562V6.23438H19.3594V9.51562C15.7408 9.51562 12.7969 12.4596 12.7969 16.0781C12.7969 19.6967 15.7408 22.6406 19.3594 22.6406V29.2031C17.5501 29.2031 16.0781 27.7312 16.0781 25.9219H12.7969C12.7969 29.5404 15.7408 32.4844 19.3594 32.4844V35.7656H22.6406V32.4844C26.2592 32.4844 29.2031 29.5404 29.2031 25.9219C29.2031 22.3033 26.2592 19.3594 22.6406 19.3594V12.7969C24.4499 12.7969 25.9219 14.2688 25.9219 16.0781ZM25.9219 25.9219C25.9219 27.7312 24.4499 29.2031 22.6406 29.2031V22.6406C24.4499 22.6406 25.9219 24.1126 25.9219 25.9219ZM19.3594 19.3594C17.5501 19.3594 16.0781 17.8874 16.0781 16.0781C16.0781 14.2688 17.5501 12.7969 19.3594 12.7969V19.3594Z" fill="white"/>
</g>
<defs>
<clipPath id="clip0_902_175">
<rect width="42" height="42" fill="white"/>
</clipPath>
</defs>
</svg>
