<svg width="42" height="42" viewBox="0 0 42 42" fill="none" xmlns="http://www.w3.org/2000/svg">
<g clip-path="url(#clip0_902_171)">
<path d="M20.9865 41.5898C19.8554 41.5898 18.8075 41.0793 18.1103 40.1879L13.9152 34.8677L6.56153 34.8632C2.94383 34.8632 0 31.9194 0 28.3007V6.89061C0 3.27195 2.94383 0.328125 6.56249 0.328125H35.4374C39.0561 0.328125 41.9999 3.27195 41.9999 6.89061V20.0976C41.9999 21.0038 41.2655 21.7382 40.3593 21.7382C39.4531 21.7382 38.7187 21.0038 38.7187 20.0976V6.89061C38.7187 5.08144 37.2466 3.60937 35.4374 3.60937H6.56249C4.75332 3.60937 3.28124 5.08144 3.28124 6.89061V28.3007C3.28124 30.1099 4.75332 31.582 6.56249 31.582L14.7124 31.5868C15.2145 31.5871 15.6888 31.8175 15.9996 32.2116L20.6911 38.1611C20.7869 38.2838 20.9038 38.3085 20.9868 38.3085H20.9884C21.0711 38.3082 21.189 38.2829 21.2807 38.164C21.2835 38.1602 21.2864 38.1563 21.2893 38.1528L25.9427 32.211C26.2538 31.814 26.73 31.582 27.2343 31.582H35.4374C37.2469 31.582 38.7187 30.1099 38.7187 28.3007C38.7187 27.3945 39.4531 26.6601 40.3593 26.6601C41.2655 26.6601 41.9999 27.3945 41.9999 28.3007C41.9999 31.9194 39.0561 34.8632 35.4374 34.8632H28.0335L23.8762 40.1712C23.1828 41.0684 22.1356 41.5853 21.0012 41.5898C20.9964 41.5898 20.9913 41.5898 20.9865 41.5898ZM22.6406 25.3476V16.4882C22.6406 15.5821 21.9061 14.8476 21 14.8476C20.0938 14.8476 19.3593 15.5821 19.3593 16.4882V25.3476C19.3593 26.2538 20.0938 26.9882 21 26.9882C21.9061 26.9882 22.6406 26.2538 22.6406 25.3476ZM21 9.18748C20.0938 9.18748 19.3593 9.92192 19.3593 10.8281C19.3593 11.7343 20.0938 12.4687 21 12.4687C21.9061 12.4687 22.6406 11.7343 22.6406 10.8281C22.6406 9.92192 21.9061 9.18748 21 9.18748Z" fill="white"/>
</g>
<defs>
<clipPath id="clip0_902_171">
<rect width="42" height="42" fill="white"/>
</clipPath>
</defs>
</svg>
