<svg width="54" height="54" viewBox="0 0 54 54" fill="none" xmlns="http://www.w3.org/2000/svg">
<g clip-path="url(#clip0_902_96)">
<path d="M53.3582 51.6743L43.9218 29.6584C43.6737 29.0803 43.105 28.7053 42.4763 28.7053H36.4833C38.9088 24.468 40.9035 19.7781 40.9035 15.81C40.9035 -4.62451 12.5939 -4.87379 12.5939 15.81C12.5939 19.7781 14.5886 24.468 17.0141 28.7053H11.0211C10.392 28.7053 9.82328 29.0803 9.57563 29.6584L0.139253 51.6743C-0.304639 52.7098 0.455853 53.8664 1.58476 53.8664H51.9127C53.0391 53.8664 53.8029 52.7122 53.3582 51.6743ZM41.4388 31.8505L46.0951 42.7136C45.9495 42.7895 30.7943 50.6592 30.6858 50.7212H27.3937C27.3105 50.6282 28.018 51.3393 17.7676 41.0903L23.4611 38.1764C24.6219 39.6578 25.435 40.599 25.5619 40.7451C26.1885 41.4664 27.3093 41.4652 27.9351 40.7451C28.1983 40.4424 31.4043 36.7276 34.5625 31.8505H41.4388ZM26.7487 3.54384C32.0509 3.54384 37.7579 7.38261 37.7579 15.81C37.7579 22.896 29.8147 33.4413 26.7487 37.247C23.6827 33.4409 15.7395 22.896 15.7395 15.81C15.7395 7.33691 21.2686 3.54384 26.7487 3.54384ZM12.0582 31.8505C19.677 31.8505 18.8113 31.8517 18.9333 31.8481C19.819 33.2161 20.7084 34.4927 21.5358 35.6285L7.32068 42.9038L12.0582 31.8505ZM5.38069 47.43L14.8256 42.5961L22.952 50.7212H3.96986L5.38069 47.43ZM37.5025 50.7212L47.3379 45.6124L49.5276 50.7212H37.5025Z" fill="#FC782E"/>
<path d="M31.4667 14.5521C31.4667 11.9508 29.35 9.83411 26.7487 9.83411C24.1469 9.83411 22.0303 11.9508 22.0303 14.5521C22.0303 17.1534 24.1469 19.2697 26.7487 19.2697C29.35 19.2697 31.4667 17.1534 31.4667 14.5521ZM25.1759 14.5521C25.1759 13.6847 25.8813 12.9793 26.7487 12.9793C27.6156 12.9793 28.3215 13.6847 28.3215 14.5521C28.3215 15.4191 27.6156 16.1245 26.7487 16.1245C25.8813 16.1245 25.1759 15.4191 25.1759 14.5521Z" fill="#FC782E"/>
</g>
<defs>
<clipPath id="clip0_902_96">
<rect width="53.4759" height="53.4759" fill="white" transform="translate(0.0107422 0.390381)"/>
</clipPath>
</defs>
</svg>
