<svg width="21" height="21" viewBox="0 0 21 21" fill="none" xmlns="http://www.w3.org/2000/svg">
<g clip-path="url(#clip0_1_110)">
<path d="M3.77997 17.682C3.98997 17.682 4.03197 17.661 4.22097 17.619L8.00097 16.863C8.39997 16.758 8.79897 16.569 9.11397 16.254L18.27 7.098C19.677 5.691 19.677 3.276 18.27 1.869L17.493 1.05C16.086 -0.356999 13.65 -0.356999 12.243 1.05L3.08697 10.227C2.79297 10.521 2.58297 10.941 2.47797 11.34L1.67997 15.162C1.57497 15.876 1.78497 16.569 2.28897 17.073C2.68797 17.472 3.27597 17.682 3.77997 17.682ZM4.49397 11.739L13.65 2.562C14.259 1.953 15.372 1.953 15.96 2.562L16.758 3.36C17.472 4.074 17.472 5.082 16.758 5.775L7.62297 14.952L3.73797 15.603L4.49397 11.739Z" fill="white"/>
<path d="M18.186 18.984H2.68799C2.07899 18.984 1.67999 19.383 1.67999 19.992C1.67999 20.601 2.18399 21 2.68799 21H18.102C18.711 21 19.215 20.601 19.215 19.992C19.194 19.383 18.69 18.984 18.186 18.984Z" fill="white"/>
</g>
<defs>
<clipPath id="clip0_1_110">
<rect width="21" height="21" fill="white"/>
</clipPath>
</defs>
</svg>
