<svg width="55" height="54" viewBox="0 0 55 54" fill="none" xmlns="http://www.w3.org/2000/svg">
<path d="M38.3288 29.3969L35.092 26.1602L43.6462 17.606L44.754 18.7138C45.4713 19.4311 46.6785 19.2898 47.2051 18.412L53.8518 7.33431C54.2217 6.71788 54.1245 5.9288 53.6162 5.42057L49.185 0.989497C48.6768 0.481164 47.8876 0.384135 47.2712 0.75387L36.1935 7.40053C35.3193 7.92505 35.1724 9.13222 35.8918 9.85164L36.9996 10.9594L28.4454 19.5135L25.2086 16.2768C26.3479 12.0198 25.1859 7.39123 21.9634 4.16869C17.9326 0.137959 11.8985 -0.49999 7.17959 2.04188C6.74363 2.27678 6.4444 2.70385 6.37244 3.1938C6.30058 3.68375 6.46456 4.17882 6.81476 4.52903L12.6942 10.4084C13.3051 11.0193 13.3051 12.0132 12.6942 12.6239C12.0833 13.2348 11.0895 13.2349 10.4786 12.6239L4.59917 6.7444C4.24897 6.3942 3.7538 6.23012 3.26395 6.30208C2.774 6.37394 2.34693 6.67328 2.11203 7.10923C-0.420234 11.8105 0.194528 17.8486 4.23905 21.893C7.45438 25.1083 12.0806 26.2802 16.3471 25.1383L17.368 26.159L2.89704 40.6303C-0.165911 43.6932 -0.167791 48.6436 2.89704 51.7085C5.95132 54.7627 10.9209 54.7629 13.9753 51.7085L28.4461 37.2373L29.4672 38.2583C28.3279 42.5153 29.4899 47.1439 32.7124 50.3664C36.7432 54.3972 42.7773 55.0352 47.4962 52.4933C47.9322 52.2584 48.2314 51.8313 48.3034 51.3414C48.3752 50.8514 48.2112 50.3564 47.861 50.0062L41.9816 44.1268C41.3707 43.5159 41.3707 42.522 41.9816 41.9113C42.5925 41.3004 43.5864 41.3005 44.1972 41.9113L50.0766 47.7907C50.4267 48.1409 50.9219 48.3047 51.4118 48.233C51.9018 48.1611 52.3289 47.8618 52.5638 47.4259C55.096 42.7246 54.4814 36.6865 50.4369 32.6421C47.2215 29.4269 42.5953 28.255 38.3288 29.3969ZM47.8344 4.06999L50.5356 6.77114L45.5507 15.0793L39.5261 9.05493L47.8344 4.06999ZM39.2151 13.175L41.4306 15.3904L32.8764 23.9446L30.6609 21.7291L39.2151 13.175ZM11.7597 49.4931C9.92711 51.3257 6.94521 51.3257 5.11252 49.4931C3.27377 47.6544 3.27262 44.6858 5.11252 42.846L19.5833 28.3747L26.2305 35.0219L11.7597 49.4931ZM50.621 43.904L46.4128 39.6958C44.5804 37.8635 41.5987 37.8634 39.7661 39.6958C37.9338 41.5282 37.9338 44.5099 39.7661 46.3424L43.9743 50.5506C40.7771 51.4236 37.3405 50.5634 34.9281 48.151C32.3747 45.5977 31.5077 41.7483 32.7194 38.3444C32.9222 37.7745 32.7789 37.1389 32.3512 36.7113L17.8943 22.2544C17.4675 21.8276 16.8323 21.6829 16.2612 21.8862C12.8571 23.0978 9.00789 22.2307 6.45453 19.6775C4.04207 17.265 3.18196 13.8286 4.05491 10.6313L8.2631 14.8395C10.0955 16.6719 13.0772 16.6718 14.9098 14.8395C16.7421 13.0071 16.7421 10.0254 14.9098 8.19284L10.7016 3.98466C13.8987 3.1115 17.3354 3.97181 19.7478 6.38428C22.3012 8.93764 23.1682 12.787 21.9565 16.1909C21.7537 16.7608 21.897 17.3964 22.3247 17.824L36.7815 32.2808C37.2092 32.7085 37.8449 32.8517 38.4146 32.649C41.8185 31.4373 45.6679 32.3044 48.2213 34.8577C50.6338 37.2704 51.4939 40.7067 50.621 43.904Z" fill="white"/>
</svg>
