<svg width="20" height="20" viewBox="0 0 20 20" fill="none" xmlns="http://www.w3.org/2000/svg">
<path d="M9.21875 13.5149V10.7805H6.48438C6.05286 10.7805 5.70312 10.4308 5.70312 9.99924C5.70312 9.56787 6.05286 9.21799 6.48438 9.21799H9.21875V6.48361C9.21875 6.05225 9.56848 5.70236 10 5.70236C10.4315 5.70236 10.7812 6.05225 10.7812 6.48361V9.21799H13.5156C13.9471 9.21799 14.2969 9.56787 14.2969 9.99924C14.2969 10.4308 13.9471 10.7805 13.5156 10.7805H10.7812V13.5149C10.7812 13.9464 10.4315 14.2961 10 14.2961C9.56848 14.2961 9.21875 13.9464 9.21875 13.5149ZM17.0711 2.92892C15.1823 1.04019 12.6711 0 10 0C7.32895 0 4.81766 1.04019 2.92892 2.92892C1.04019 4.81766 0 7.32895 0 10C0 12.6711 1.04019 15.1823 2.92892 17.0711C4.81766 18.9598 7.32895 20 10 20C11.8286 20 13.6179 19.5016 15.1743 18.5588C15.5434 18.3353 15.6613 17.8549 15.4378 17.486C15.2142 17.1169 14.7337 16.9989 14.3648 17.2224C13.0525 18.0173 11.5431 18.4375 10 18.4375C5.3476 18.4375 1.5625 14.6524 1.5625 10C1.5625 5.3476 5.3476 1.5625 10 1.5625C14.6524 1.5625 18.4375 5.3476 18.4375 10C18.4375 11.6637 17.9428 13.2829 17.0068 14.6831C16.767 15.0417 16.8634 15.5269 17.2221 15.7668C17.5807 16.0065 18.0659 15.91 18.3058 15.5515C19.4141 13.8936 20 11.9739 20 10C20 7.32895 18.9598 4.81766 17.0711 2.92892Z" fill="white"/>
</svg>
