<svg width="40" height="40" viewBox="0 0 40 40" fill="none" xmlns="http://www.w3.org/2000/svg">
<g clip-path="url(#clip0_902_164)">
<path d="M39.5425 21.3848L35.1231 16.9653C34.8301 16.6723 34.4327 16.5077 34.0182 16.5077C33.6037 16.5077 33.2063 16.6723 32.9133 16.9653L19.4084 30.4703C18.3142 31.5645 17.5755 32.945 17.2719 34.4624L16.5382 38.1311C16.4357 38.6433 16.5961 39.1729 16.9655 39.5423C17.2614 39.8382 17.6601 40 18.0704 40C18.1723 40 18.2749 39.99 18.3768 39.9696L22.0455 39.2358H22.0455C23.563 38.9323 24.9434 38.1936 26.0377 37.0993L39.5425 23.5945C40.1527 22.9843 40.1527 21.995 39.5425 21.3848ZM23.8278 34.8896C23.1713 35.5462 22.343 35.9895 21.4327 36.1715L20.0622 36.4456L20.3362 35.0751C20.5184 34.1646 20.9616 33.3364 21.6182 32.6798L34.0182 20.2798L36.2279 22.4895L23.8278 34.8896Z" fill="white"/>
<path d="M11.6976 36.875H4.6875C3.82594 36.875 3.125 36.1741 3.125 35.3125V4.6875C3.125 3.82594 3.82594 3.125 4.6875 3.125H18.75V7.8125C18.75 10.3972 20.8528 12.5 23.4375 12.5H28.125V13.5627C28.125 14.4256 28.8245 15.1252 29.6875 15.1252C30.5505 15.1252 31.25 14.4256 31.25 13.5627V10.9374C31.25 10.5145 31.0716 10.1089 30.7916 9.83187L21.4174 0.457656C21.1291 0.169375 20.7252 0 20.3125 0H4.6875C2.10281 0 0 2.10281 0 4.6875V35.3125C0 37.8972 2.10281 40 4.6875 40H11.6976C12.5605 40 13.2601 39.3005 13.2601 38.4375C13.2601 37.5745 12.5605 36.875 11.6976 36.875ZM23.4375 9.375C22.5759 9.375 21.875 8.67406 21.875 7.8125V5.33469L25.9153 9.375H23.4375Z" fill="white"/>
<path d="M25 16.5625C25 15.6995 24.3005 15 23.4375 15H7.8125C6.94953 15 6.25 15.6995 6.25 16.5625C6.25 17.4255 6.94953 18.125 7.8125 18.125H23.4375C24.3005 18.125 25 17.4255 25 16.5625Z" fill="white"/>
<path d="M7.8125 21.25C6.94953 21.25 6.25 21.9495 6.25 22.8125C6.25 23.6755 6.94953 24.375 7.8125 24.375H20.4377C21.3006 24.375 22.0002 23.6755 22.0002 22.8125C22.0002 21.9495 21.3006 21.25 20.4377 21.25H7.8125Z" fill="white"/>
<path d="M14.5291 27.5H7.8125C6.94953 27.5 6.25 28.1995 6.25 29.0625C6.25 29.9255 6.94953 30.625 7.8125 30.625H14.5291C15.392 30.625 16.0916 29.9255 16.0916 29.0625C16.0916 28.1995 15.392 27.5 14.5291 27.5Z" fill="white"/>
</g>
<defs>
<clipPath id="clip0_902_164">
<rect width="40" height="40" fill="white"/>
</clipPath>
</defs>
</svg>
